<?xml version="1.0" encoding="iso-8859-1"?>
<svg version="1.1" id="Capa_1" xmlns="http://www.w3.org/2000/svg" xmlns:xlink="http://www.w3.org/1999/xlink" x="0px" y="0px"
	 viewBox="0 0 225 225" style="enable-background:new 0 0 225 225;" xml:space="preserve">
	<path fill="#000000" d="M112.5,225c62.033,0,112.5-50.467,112.5-112.5S174.533,0,112.5,0S0,50.467,0,112.5S50.467,225,112.5,225z M112.5,15
		c53.762,0,97.5,43.738,97.5,97.5S166.262,210,112.5,210S15,166.262,15,112.5S58.738,15,112.5,15z M66.946,147.447l34.946-34.947
		L66.946,77.553l10.607-10.606l34.946,34.946l34.946-34.946l10.607,10.606L123.107,112.5l34.946,34.947l-10.607,10.606L112.5,123.107
		l-34.946,34.946L66.946,147.447z"/>
</svg>
