<svg id="Light_Trending_Component" data-name="Light Trending Component" xmlns="http://www.w3.org/2000/svg" width="62" height="16" viewBox="0 0 62 16">
  <g id="Light_Fork_Component" data-name="Light Fork Component">
    <g id="Group_626" data-name="Group 626">
      <g id="Path_2995" data-name="Path 2995" fill="none" stroke-dasharray="4">
        <path d="M0,0H62V16H0Z" stroke="none"/>
        <path d="M 8 0 L 12 0 L 12 1 L 8 1 L 8 0 Z M 16 0 L 20 0 L 20 1 L 16 1 L 16 0 Z M 24 0 L 28 0 L 28 1 L 24 1 L 24 0 Z M 32 0 L 36 0 L 36 1 L 32 1 L 32 0 Z M 40 0 L 44 0 L 44 1 L 40 1 L 40 0 Z M 48 0 L 52 0 L 52 1 L 48 1 L 48 0 Z M 56 0 L 60 0 L 60 1 L 56 1 L 56 0 Z M 61 2 L 62 2 C 62 2 62 6 62 6 L 61 6 L 61 2 Z M 61 10 L 62 10 C 62 10 62 14 62 14 L 61 14 L 61 10 Z M 56 15 L 60 15 L 60 16 C 60 16 56 16 56 16 L 56 15 Z M 48 15 L 52 15 L 52 16 C 52 16 48 16 48 16 L 48 15 Z M 40 15 L 44 15 L 44 16 C 44 16 40 16 40 16 L 40 15 Z M 32 15 L 36 15 L 36 16 C 36 16 32 16 32 16 L 32 15 Z M 24 15 L 28 15 L 28 16 C 28 16 24 16 24 16 L 24 15 Z M 16 15 L 20 15 L 20 16 C 20 16 16 16 16 16 L 16 15 Z M 8 15 L 12 15 L 12 16 C 12 16 8 16 8 16 L 8 15 Z M 0 15 L 4 15 L 4 16 C 4 16 0 16 0 16 L 0 15 Z M 0 8 L 1 8 L 1 12 L 0 12 L 0 8 Z M 0 0 L 4 0 L 4 1 L 1 1 L 1 4 L 0 4 L 0 0 Z" stroke="none" fill="#fcbc66"/>
      </g>
      <text id="FAVORITE" transform="translate(12.621 11)" fill="#fcbc66" font-size="8" font-family="Roboto-Medium, Roboto" font-weight="500" letter-spacing="0.013em"><tspan x="0" y="0">FAVORITE</tspan></text>
    </g>
  </g>
</svg>
