<svg xmlns="http://www.w3.org/2000/svg" width="24" height="22.5" viewBox="0 0 24 22.5">
  <path fill="#000000" id="iconfinder_megaphone_298824" d="M19.5,32c-3.047,0-2.906,3.047-16.5,3-1.656,0-3,2.687-3,6s1.344,6,3,6c.534,0,1.012.012,1.5.021L6,53.75l4.5.75L12,52.25l-1.058-4.761C16.626,48.339,17.2,50,19.5,50c2.484,0,4.5-4.031,4.5-9S21.984,32,19.5,32ZM4.617,42.569c-.918-.034-1.926-.053-2.99-.062A8.816,8.816,0,0,1,1.5,41c0-2.071.672-4.5,1.5-4.5.915,0,1.758-.01,2.555-.033A9.246,9.246,0,0,0,4.5,41,11.5,11.5,0,0,0,4.617,42.569Zm1.507.07A11.521,11.521,0,0,1,6,41a9.084,9.084,0,0,1,1.1-4.6,29.216,29.216,0,0,0,7.477-1.176A15.016,15.016,0,0,0,13.5,41a17.408,17.408,0,0,0,.223,2.679A39.242,39.242,0,0,0,6.125,42.639ZM19.5,47.75a1.546,1.546,0,0,1-.816-.284c-.357-1.578-1.956-9.8,2.752-11.583A11.455,11.455,0,0,1,22.5,41C22.5,44.727,21.155,47.75,19.5,47.75Z" transform="translate(0 -32)"/>
</svg>
