<svg xmlns="http://www.w3.org/2000/svg" width="18.513" height="15.569" viewBox="0 0 18.513 15.569">
    <g id="clean" transform="translate(0 -7.601)">
        <g id="Group_1058" data-name="Group 1058" transform="translate(0 7.601)">
            <g id="Group_1057" data-name="Group 1057" transform="translate(0 0)">
                <path id="Path_3279" data-name="Path 3279" d="M137.192,83.8a.407.407,0,0,0-.273-.174c-.571,0-5.482-.2-5.482-5.9a.322.322,0,0,0-.645,0c0,5.705-4.912,5.9-5.457,5.9a.282.282,0,0,0-.2.074c-.05.025-.074.074-.1.1a.368.368,0,0,0,0,.322.344.344,0,0,0,.3.174h.025c.571,0,5.457.2,5.457,5.9a.322.322,0,1,0,.645,0c0-5.681,4.887-5.9,5.457-5.9a.378.378,0,0,0,.3-.174A.305.305,0,0,0,137.192,83.8Z" transform="translate(-118.739 -74.955)" fill="#000000" />
                <path id="Path_3280" data-name="Path 3280" d="M51.59,12.007a.27.27,0,0,0,.26-.281.265.265,0,0,0-.26-.26,2.374,2.374,0,0,1-2.4-2.6.26.26,0,0,0-.521,0,2.374,2.374,0,0,1-2.4,2.6h-.02a.261.261,0,0,0-.24.26.265.265,0,0,0,.26.26,2.365,2.365,0,0,1,2.4,2.6.265.265,0,0,0,.26.26.231.231,0,0,0,.24-.24,2.374,2.374,0,0,1,2.4-2.6h.02Z" transform="translate(-43.696 -8.601)" fill="#000000" />
                <path id="Path_3281" data-name="Path 3281" d="M5.59,191.866a2.374,2.374,0,0,1-2.4-2.6.26.26,0,0,0-.521,0,2.374,2.374,0,0,1-2.4,2.6H.24a.261.261,0,0,0-.24.26.265.265,0,0,0,.26.26,2.365,2.365,0,0,1,2.4,2.6.265.265,0,0,0,.26.26c.12.04.24-.08.24-.24a2.374,2.374,0,0,1,2.4-2.6h.02a.27.27,0,0,0,.26-.281A.265.265,0,0,0,5.59,191.866Z" transform="translate(0 -179.964)" fill="#000000" />
            </g>
        </g>
    </g>
</svg>
