<?xml version="1.0" encoding="UTF-8"?>
<svg width="564px" height="452px" viewBox="0 0 564 452" version="1.1" xmlns="http://www.w3.org/2000/svg" xmlns:xlink="http://www.w3.org/1999/xlink">
    <!-- Generator: Sketch 63.1 (92452) - https://sketch.com -->
    <title>total_views</title>
    <desc>Created with Sketch.</desc>
    <g id="Page-1" stroke="none" stroke-width="1" fill="none" fill-rule="evenodd">
        <g id="total_views" fill="#000000">
            <path d="M247.845,83 C92.25,83 0,267.5 0,267.5 C0,267.5 92.25,452 247.845,452 C399.75,452 492,267.5 492,267.5 C492,267.5 399.75,83 247.845,83 Z M246,390.5 C178.35,390.5 123,335.765 123,267.5 C123,199.85 178.35,144.5 246,144.5 C314.265,144.5 369,199.85 369,267.5 C369,335.765 314.265,390.5 246,390.5 Z M307.5,267.5 C307.5,301.6325 280.1325,329 246,329 C211.8675,329 184.5,301.6325 184.5,267.5 C184.5,233.3675 211.8675,206 246,206 C280.1325,206 307.5,233.3675 307.5,267.5 Z" id="unique_views" fill-rule="nonzero"></path>
            <path d="M187.12148,57.7578763 C200.386662,42.1177951 214.286825,30.7449076 228.821967,23.6392139 C251.529964,12.5381141 278.397703,0 320.121524,0 C401.905793,0 483.198618,61.4445493 564,184.333648 C536.673735,222.233983 515.158774,239.678629 499.455117,236.667584 C491.273343,218.932343 479.541715,199.133403 464.260233,177.270763 C451.280354,161.368019 442.328773,150.574681 437.405493,144.890746 C415.154915,119.202426 400.198636,106.109684 387.636106,96.4953809 C367.319644,80.9468692 344.814783,68.916965 320.121524,60.4056685 C311.521275,56.9562237 299.70261,54.1498491 284.665527,51.9865447 C261.604157,50.097142 241.719955,50.097142 225.01292,51.9865447 C203.955436,54.3679409 174.260215,74.6043924 187.12148,57.7578763 Z" id="Path-2"></path>
        </g>
    </g>
</svg>