<svg xmlns="http://www.w3.org/2000/svg" width="24" height="23.408" viewBox="0 0 24 23.408">
  <path id="Path_2724" data-name="Path 2724" d="M148.319,383.44a12,12,0,0,0-3.792,23.387c.6.11.819-.26.819-.578,0-.285-.01-1.039-.016-2.041-3.338.726-4.042-1.608-4.042-1.608a3.178,3.178,0,0,0-1.333-1.755c-1.09-.745.083-.729.083-.729a2.519,2.519,0,0,1,1.838,1.236,2.555,2.555,0,0,0,3.493,1,2.565,2.565,0,0,1,.762-1.6c-2.665-.3-5.466-1.332-5.466-5.931a4.639,4.639,0,0,1,1.235-3.22,4.311,4.311,0,0,1,.118-3.176s1.007-.323,3.3,1.23a11.38,11.38,0,0,1,6.008,0c2.291-1.553,3.3-1.23,3.3-1.23a4.312,4.312,0,0,1,.12,3.176,4.631,4.631,0,0,1,1.233,3.22c0,4.61-2.806,5.625-5.479,5.921a2.865,2.865,0,0,1,.815,2.223c0,1.6-.015,2.9-.015,3.292,0,.32.217.694.825.577a12.229,12.229,0,0,0,6.653-5.488,11.667,11.667,0,0,0,1.547-5.9A12,12,0,0,0,148.319,383.44Z" transform="translate(-136.32 -383.44)" fill="#fff" fill-rule="evenodd"/>
</svg>
