<svg xmlns="http://www.w3.org/2000/svg" width="17.616" height="32" viewBox="0 0 17.616 32">
  <path fill="#000000" id="touch" d="M1.724,26.953a2.049,2.049,0,0,1,.8,1.6v1.6A1.675,1.675,0,0,0,4.04,32l.053,0H6.607a.469.469,0,0,0,0-.938H4.121c-.458-.061-.663-.341-.663-.906v-1.6A2.96,2.96,0,0,0,2.4,26.3a2.652,2.652,0,0,1-.961-2.146c0-6.174,0-7.118,0-8.155a.941.941,0,1,1,1.881,0v2.769a.469.469,0,0,0,.938,0V15.715a.941.941,0,0,1,1.882,0v3.054a.469.469,0,1,0,.938,0V15.335a.941.941,0,1,1,1.881,0v3.435a.487.487,0,0,0,.49.469.469.469,0,0,0,.469-.469c0-8.375,0-5.15,0-12.049a.954.954,0,0,1,.114-.448.941.941,0,0,1,1.767.45V19.876a.71.71,0,0,0,1.274.43l2.248-2.951.009-.012a.988.988,0,0,1,1.356-.4.928.928,0,0,1,.4,1.217l0,.009L14.3,24.527a7.5,7.5,0,0,1-1.823,2.218c-1.2,1.185-.349,3.552-.916,4.132a.863.863,0,0,1-.628.186H8.794a.469.469,0,0,0,0,.938h2.141a1.741,1.741,0,0,0,1.3-.468,2.64,2.64,0,0,0,.486-1.976c-.014-.621-.02-1.71.419-2.145a8.169,8.169,0,0,0,2.016-2.493l0-.009,2.779-6.359a1.862,1.862,0,0,0-.782-2.416,1.909,1.909,0,0,0-2.586.657L12.734,19.2V11.669a6.009,6.009,0,0,0,4-4.592.469.469,0,0,0-.922-.17,5.069,5.069,0,0,1-3.075,3.764V8.941a3.507,3.507,0,1,0-3.756.016v1.726a5.051,5.051,0,1,1,6.8-5.778.469.469,0,0,0,.916-.2,5.988,5.988,0,1,0-7.716,6.973v2.044a1.877,1.877,0,0,0-2.535.588,1.876,1.876,0,0,0-2.779.322A1.877,1.877,0,0,0,.5,16v8.154A3.583,3.583,0,0,0,1.724,26.953Zm7.253-19.2a2.569,2.569,0,1,1,3.757-.027V6.723A1.88,1.88,0,0,0,10.86,4.841h0A1.882,1.882,0,0,0,8.978,6.72Zm0,0" transform="translate(-0.5)"/>
</svg>
