<?xml version="1.0" encoding="UTF-8"?>
<svg width="563px" height="446px" viewBox="0 0 563 446" version="1.1" xmlns="http://www.w3.org/2000/svg" xmlns:xlink="http://www.w3.org/1999/xlink">
    <!-- Generator: Sketch 63.1 (92452) - https://sketch.com -->
    <title>total_clones</title>
    <desc>Created with Sketch.</desc>
    <g id="Page-1" stroke="none" stroke-width="1" fill="none" fill-rule="evenodd">
        <g id="total_clones" fill="#000000" fill-rule="nonzero">
            <g id="unique_clones" transform="translate(0.000000, 59.000000)">
                <path d="M410.930323,128.910156 C393.637354,42.144531 311.84375,-14.171875 225.078125,3.121094 C161.617188,15.769531 111.996094,65.359375 99.308594,128.8125 C37.789062,135.902344 -6.339844,191.519531 0.746094,253.042969 C7.269531,309.664062 55.226562,352.382812 112.222656,352.345145 L144.171203,352.345145 C153.018859,352.345145 157.040084,345.171875 157.040084,336.324219 C157.040084,327.476562 153.018859,320.304688 144.171203,320.304688 L112.222656,320.304688 C67.984375,320.042969 32.339844,283.972656 32.597656,239.738281 C32.859375,195.5 68.929688,159.851562 113.167969,160.113281 C121.332031,160.113281 128.191406,153.972656 129.089844,145.855469 C137.222656,75.550781 200.8125,25.148438 271.121094,33.28125 C330.230469,40.117188 376.859375,86.746094 383.695312,145.855469 C385.039062,154.117188 392.195312,160.167969 400.5625,160.113281 C444.800781,160.113281 480.660156,195.972656 480.660156,240.210938 C480.660156,284.445312 444.800781,320.304688 400.5625,320.304688 L369.349108,320.304688 C360.501452,320.304688 354.915175,327.476562 354.915175,336.324219 C354.915175,345.171875 360.501452,352.345145 369.349108,352.345145 L400.566406,352.345145 C462.492188,351.957031 512.382812,301.441406 512,239.515625 C511.648438,183.121094 469.46875,135.761719 413.492188,128.910156 L410.930323,128.910156 Z" id="Path"></path>
                <path d="M312.796383,291.011719 L272.187008,331.632813 L272.187008,130.019531 C272.187008,121.171875 265.015133,114 256.171383,114 C247.323727,114 240.151852,121.171875 240.151852,130.019531 L240.151852,331.632813 L199.542477,291.011719 C193.397946,284.644531 183.253414,284.46875 176.890133,290.617187 C170.526852,296.761719 170.351071,306.902344 176.495602,313.265625 C176.628414,313.402344 176.757321,313.53125 176.890133,313.660156 L244.827633,381.613281 C246.312008,383.09375 248.069821,384.269531 250.003414,385.074219 C253.944821,386.742187 258.39404,386.742187 262.339352,385.074219 C264.272946,384.269531 266.030758,383.09375 267.511227,381.613281 L335.448727,313.660156 C341.812008,307.515625 341.98779,297.375 335.843258,291.011719 C329.694821,284.648437 319.554196,284.472656 313.190914,290.617187 C313.058102,290.746094 312.92529,290.875 312.796383,291.011719 Z" id="Path"></path>
            </g>
            <path d="M461.930323,128.910156 C444.637354,42.144531 360.760501,-11.2062474 276.078125,3.121094 C212.07895,13.9490616 181.256513,56.9982299 203,64.0002938 C224.743487,71.0023578 254.769077,15.769531 322.121094,33.28125 C379.604556,48.2271161 427.859375,86.746094 434.695312,145.855469 C436.039062,154.117188 443.195312,160.167969 451.5625,160.113281 C495.800781,160.113281 531.660156,195.972656 531.660156,240.210938 C531.660156,284.445312 531.660156,270.656507 531.660156,279.504164 C531.660156,288.35182 563.382812,301.441406 563,239.515625 C562.648438,183.121094 520.46875,135.761719 464.492188,128.910156 L461.930323,128.910156 Z" id="Path"></path>
        </g>
    </g>
</svg>