<svg xmlns="http://www.w3.org/2000/svg" width="27.279" height="32.023" viewBox="0 0 27.279 32.023">
  <g id="finger" transform="translate(-32 0)">
    <g id="Group_877" data-name="Group 877" transform="translate(32 2.372)">
      <g id="Group_876" data-name="Group 876" transform="translate(0)">
        <path fill="#000000" id="Path_2944" data-name="Path 2944" d="M39.709,32H36.151a.593.593,0,0,0,0,1.186h1.643l.729-.267-5.539,5.563.2-.812V36.151a.593.593,0,0,0-1.186,0v3.558a.593.593,0,0,0,.593.593h3.558a.593.593,0,1,0,0-1.186H34.633l-.783.178,5.527-5.515-.261.706v1.666a.593.593,0,1,0,1.186,0V32.593A.593.593,0,0,0,39.709,32Z" transform="translate(-32 -32)" />
      </g>
    </g>
    <g id="Group_879" data-name="Group 879" transform="translate(43.86 29.651)">
      <g id="Group_878" data-name="Group 878">
        <path fill="#000000" id="Path_2945" data-name="Path 2945" d="M193.779,400h-1.186a.593.593,0,0,0,0,1.186h1.186a.593.593,0,0,0,0-1.186Z" transform="translate(-192 -400)"/>
      </g>
    </g>
    <g id="Group_881" data-name="Group 881" transform="translate(34.371 0)">
      <g id="Group_880" data-name="Group 880" transform="translate(0 0)">
        <path fill="#000000" id="Path_2946" data-name="Path 2946" d="M87.705,26.733v-1.69a5.366,5.366,0,0,1,.16-1.322l.51-2.034a12.453,12.453,0,0,0,.308-4.293l-.593-3.742a3.558,3.558,0,0,0-3.517-2.977h-.427a.593.593,0,0,0-.208.042,2.965,2.965,0,0,0-2.372-1.228h-.385a1.779,1.779,0,0,0-.765.172A2.965,2.965,0,0,0,77.938,8.3h-.314a1.78,1.78,0,0,0-.593.107V2.372A2.372,2.372,0,0,0,74.659,0h-.113a2.372,2.372,0,0,0-2.372,2.218l-.854,13.45a5.207,5.207,0,0,1-1.933-1.228l-.534-.534a2.965,2.965,0,0,0-4.187,0l-.338.326a1.186,1.186,0,0,0-.113,1.542l1.121,1.506a9.164,9.164,0,0,1,.557.866l.125.237a15.869,15.869,0,0,0,5.675,5.669,1.186,1.186,0,0,1,.593,1.026v1.607a.564.564,0,0,0,0,.065,3.373,3.373,0,0,0-1.186,2.9V31.43a.593.593,0,1,0,1.186,0V29.651c0-1.708.664-2.372,2.372-2.372H85.333c1.779,0,2.372.593,2.372,2.372H77.624a.593.593,0,0,0,0,1.186H87.705v.593a.593.593,0,0,0,1.186,0V29.651A3.33,3.33,0,0,0,87.705,26.733Zm-.4-5.308-.51,2.034a6.524,6.524,0,0,0-.273,1.583v1.186a5.372,5.372,0,0,0-1.186-.136H74.659a5.173,5.173,0,0,0-1.186.136V25.085a2.372,2.372,0,0,0-1.186-2.07A14.641,14.641,0,0,1,67.05,17.79l-.1-.213A10.3,10.3,0,0,0,66.3,16.6L65.17,15.08l.326-.332a1.779,1.779,0,0,1,2.514,0l.534.534A6.352,6.352,0,0,0,71.237,16.9l-.077,1.251a.593.593,0,0,0,.534.635h.059a.593.593,0,0,0,.593-.557l1.02-15.928a1.186,1.186,0,0,1,1.186-1.109h.107a1.186,1.186,0,0,1,1.186,1.186V12.453a.593.593,0,0,0,1.186,0V10.081a.593.593,0,0,1,.593-.593h.314a1.779,1.779,0,0,1,1.779,1.53L80,13.129a.593.593,0,0,0,.593.51h.083a.593.593,0,0,0,.512-.665l0-.011-.3-2.117v-.065a.593.593,0,0,1,.3-.107h.362a1.779,1.779,0,0,1,1.779,1.488l.231,1.577a.593.593,0,0,0,.593.492h.1a.593.593,0,0,0,.5-.677l0-.017-.261-1.577v-.107h.136a2.372,2.372,0,0,1,2.372,2l.593,3.712A11.226,11.226,0,0,1,87.3,21.426Z" transform="translate(-63.983 0)" />
      </g>
    </g>
  </g>
</svg>
